<?xml version="1.0" encoding="UTF-8" standalone="no"?>
<svg
   viewBox="0 0 15 15"
   version="1.1"
   id="svg4"
   sodipodi:docname="bicycle_covered_private.svg"
   inkscape:version="1.1.1 (3bf5ae0d25, 2021-09-20)"
   xmlns:inkscape="http://www.inkscape.org/namespaces/inkscape"
   xmlns:sodipodi="http://sodipodi.sourceforge.net/DTD/sodipodi-0.dtd"
   xmlns="http://www.w3.org/2000/svg"
   xmlns:svg="http://www.w3.org/2000/svg">
  <defs
     id="defs8" />
  <sodipodi:namedview
     id="namedview6"
     pagecolor="#ffffff"
     bordercolor="#666666"
     borderopacity="1.0"
     inkscape:pageshadow="2"
     inkscape:pageopacity="0.0"
     inkscape:pagecheckerboard="0"
     showgrid="false"
     inkscape:zoom="61.878748"
     inkscape:cx="11.191241"
     inkscape:cy="7.7732665"
     inkscape:window-width="2560"
     inkscape:window-height="1371"
     inkscape:window-x="0"
     inkscape:window-y="0"
     inkscape:window-maximized="1"
     inkscape:current-layer="svg4"
     inkscape:lockguides="false" />
  <g
     id="g1437"
     style="display:inline" />
  <g
     inkscape:groupmode="layer"
     id="layer1"
     inkscape:label="Layer 1" />
  <path
     d="m 9.32,5.3156223 c 0.22,0 0.41,0.16 0.45,0.37 v 0.08 1.63 l 0.67,0.67 c 1.15,0.11 2.06,1.07 2.06,2.2499997 0,1.25 -1.02,2.27 -2.27,2.27 -1.25,0 -2.28,-1.02 -2.28,-2.27 0,-0.8699997 0.5,-1.6299997 1.22,-2.0099997 l 0.15,-0.07 -0.36,-0.37 -2.25,1.28 c 0.21,0.34 0.34,0.74 0.34,1.1699997 0,1.25 -1.03,2.27 -2.28,2.27 -1.25,0 -2.27,-1.02 -2.27,-2.27 0,-1.2499997 1.02,-2.2699997 2.27,-2.2699997 0.13,0 0.25,0.01 0.37,0.03 l 0.17,0.04 -0.39,-0.98 H 4.71 c -0.58,0.01 -0.62,-0.81 -0.11,-0.9 l 0.11,-0.01 h 1.84 c 0.58,-0.01 0.61,0.81 0.1,0.9 l -0.1,0.01 H 5.9 l 0.47,1.16 2.49,-1.42 v -0.65 H 8.41 c -0.58,0.01 -0.61,-0.81 -0.1,-0.9 l 0.1,-0.01 z M 7.5569259,1.3495417 13.04059,3.7949219 13.03509,4.9771816 c -0.327656,-0.00909 -0.690386,0.00464 -1.018042,-0.00445 L 7.5054388,3.1783 2.3916644,4.9802754 c -0.4189002,-0.013783 -0.503787,0.00659 -0.9226872,-0.00719 L 1.455489,3.7372708 Z M 4.77,8.9556223 c -0.76,0 -1.36,0.6 -1.36,1.3599997 0,0.76 0.6,1.36 1.36,1.36 0.76,0 1.37,-0.6 1.37,-1.36 0,-0.7599997 -0.61,-1.3599997 -1.37,-1.3599997 z m 5.46,0 c -0.76,0 -1.37,0.6 -1.37,1.3599997 0,0.76 0.61,1.36 1.37,1.36 0.76,0 1.36,-0.6 1.36,-1.36 0,-0.7599997 -0.6,-1.3599997 -1.36,-1.3599997 z"
     id="path2"
     sodipodi:nodetypes="sccccsssccccssssccccccccccccccccscccccccccssssssssss"
     style="display:inline;opacity:1;fill:#000080" />
</svg>
