<?xml version="1.0" encoding="UTF-8" standalone="no"?>
<svg
   viewBox="0 0 15 15"
   version="1.1"
   id="svg4"
   sodipodi:docname="bicycle_repair.svg"
   inkscape:version="1.1.1 (3bf5ae0d25, 2021-09-20)"
   xmlns:inkscape="http://www.inkscape.org/namespaces/inkscape"
   xmlns:sodipodi="http://sodipodi.sourceforge.net/DTD/sodipodi-0.dtd"
   xmlns="http://www.w3.org/2000/svg"
   xmlns:svg="http://www.w3.org/2000/svg">
  <defs
     id="defs8" />
  <sodipodi:namedview
     id="namedview6"
     pagecolor="#ffffff"
     bordercolor="#666666"
     borderopacity="1.0"
     inkscape:pageshadow="2"
     inkscape:pageopacity="0.0"
     inkscape:pagecheckerboard="0"
     showgrid="false"
     inkscape:zoom="38.089486"
     inkscape:cx="16.185569"
     inkscape:cy="1.6014918"
     inkscape:window-width="3072"
     inkscape:window-height="1659"
     inkscape:window-x="0"
     inkscape:window-y="0"
     inkscape:window-maximized="1"
     inkscape:current-layer="svg4" />
  <path
     d="m 8.9600828,5.7178432 c 0.2273543,0 0.4237052,0.1726128 0.4650415,0.3991671 v 0.086306 1.7584925 l 0.6923977,0.722816 c 1.188442,0.1186713 2.128862,1.1543482 2.128862,2.4273692 0,1.348535 -1.054098,2.448943 -2.3458819,2.448943 -1.2917854,0 -2.3562167,-1.100406 -2.3562167,-2.448943 0,-0.938582 0.5167147,-1.7584946 1.2607828,-2.16845 L 8.9600828,8.868026 8.5880482,8.4688589 6.2628338,9.849761 c 0.2170201,0.366802 0.3513659,0.798334 0.3513659,1.262232 0,1.348537 -1.0644313,2.448943 -2.3562171,2.448943 -1.2917851,0 -2.3458825,-1.100406 -2.3458825,-2.448943 0,-1.348538 1.0540974,-2.4489449 2.3458825,-2.4489449 0.1343457,0 0.2583573,0.010788 0.3823687,0.032365 L 4.8160344,8.738567 4.4129969,7.6813134 H 4.1959768 C 3.5965885,7.6921016 3.5552514,6.8074613 4.0823004,6.7103666 L 4.1959768,6.699579 H 6.0974859 C 6.6968742,6.688789 6.727877,7.5734311 6.200828,7.6705259 L 6.0974859,7.6813135 H 5.4257568 L 5.9114687,8.9327561 8.4847052,7.4008177 V 6.6995785 H 8.0196628 C 7.4202739,6.7103665 7.389271,5.8257264 7.9163199,5.7286317 L 8.0196628,5.7178436 Z M 4.2579826,9.6447837 c -0.7854055,0 -1.4054623,0.6472983 -1.4054623,1.4672093 0,0.819909 0.6200568,1.467207 1.4054623,1.467207 0.7854062,0 1.4157973,-0.647298 1.4157973,-1.467207 0,-0.819911 -0.6303911,-1.4672093 -1.4157973,-1.4672093 z m 5.6425195,0 c -0.785405,0 -1.4157969,0.6472983 -1.4157969,1.4672093 0,0.819909 0.6303919,1.467207 1.4157969,1.467207 0.7854049,0 1.4054619,-0.647298 1.4054619,-1.467207 0,-0.819911 -0.620057,-1.4672093 -1.4054619,-1.4672093 z"
     id="path2"
     sodipodi:nodetypes="sccccsssccccssssccccccccccccccccsssssssssss"
     style="fill:#008000;fill-opacity:1;stroke-width:1.05588" />
  <path
     style="fill:#008000;fill-opacity:1;stroke-width:0.0141891"
     d="M 3.1939113,4.4542468 C 2.702674,4.3731409 2.252508,4.0916243 1.9603117,3.6828007 l -0.053239,-0.074488 1.040733,-4.54e-4 1.0407339,-4.541e-4 0.2696056,-0.4346279 C 4.4064287,2.933731 4.5298624,2.7293833 4.5324426,2.7186702 4.5350086,2.7079569 4.4143242,2.5015063 4.2642252,2.2598904 L 3.9913156,1.8205894 H 2.950526 c -0.5724351,0 -1.0407909,-0.004 -1.0407909,-0.00891 0,-0.026832 0.1585274,-0.2157569 0.2793728,-0.3329439 0.271032,-0.2628258 0.5978529,-0.4363306 0.9468768,-0.50268261 0.1638458,-0.031152 0.4503039,-0.028594 0.6266798,0.00557 0.4741485,0.091904 0.8767059,0.35096171 1.1488757,0.73933651 l 0.079741,0.1137882 H 7.059833 9.1283862 l 0.061398,-0.095771 C 9.2678692,1.6171729 9.5350108,1.3503852 9.6644578,1.2649345 9.9825738,1.0549395 10.310191,0.95467099 10.681229,0.95374549 c 0.979485,-0.00248 1.772362,0.73797861 1.80945,1.68973381 0.01222,0.3135628 -0.04648,0.577917 -0.190026,0.8558231 -0.250148,0.4842883 -0.706549,0.8233669 -1.266879,0.9412207 -0.168416,0.035422 -0.513513,0.034867 -0.688206,-0.00111 C 9.8834028,4.3442427 9.4688088,4.077596 9.2110038,3.7097211 L 9.1299798,3.5941021 7.0559039,3.5948026 4.981828,3.5955032 4.9037856,3.7089933 C 4.8082137,3.847972 4.5928901,4.0603718 4.4497123,4.1568996 4.246172,4.2941229 4.0220335,4.3877066 3.7756973,4.4383179 3.6219944,4.4698969 3.3361706,4.4777119 3.1939157,4.4542255 Z m 8.3289467,-1.2937406 0.27925,-0.4478057 -0.0792,-0.1303666 C 11.679346,2.5106327 11.555714,2.3115034 11.448173,2.1398253 l -0.195529,-0.3121421 -0.56254,-0.00371 -0.562541,-0.00371 -0.2724652,0.4364515 c -0.149855,0.2400483 -0.272677,0.4434419 -0.272938,0.4519859 -2.61e-4,0.00854 0.123386,0.2144512 0.274771,0.457572 l 0.2752452,0.4420377 h 0.555717 0.555718 z"
     id="path13697" />
</svg>
