<?xml version="1.0" encoding="UTF-8" standalone="no"?>
<svg
   viewBox="0 0 15 15"
   version="1.1"
   id="svg4"
   sodipodi:docname="bicycle_parking_public.svg"
   inkscape:version="1.1.1 (3bf5ae0d25, 2021-09-20)"
   xmlns:inkscape="http://www.inkscape.org/namespaces/inkscape"
   xmlns:sodipodi="http://sodipodi.sourceforge.net/DTD/sodipodi-0.dtd"
   xmlns="http://www.w3.org/2000/svg"
   xmlns:svg="http://www.w3.org/2000/svg">
  <defs
     id="defs8" />
  <sodipodi:namedview
     id="namedview6"
     pagecolor="#ffffff"
     bordercolor="#666666"
     borderopacity="1.0"
     inkscape:pageshadow="2"
     inkscape:pageopacity="0.0"
     inkscape:pagecheckerboard="0"
     showgrid="false"
     inkscape:zoom="13.466667"
     inkscape:cx="29.443069"
     inkscape:cy="-11.509901"
     inkscape:window-width="2560"
     inkscape:window-height="1371"
     inkscape:window-x="0"
     inkscape:window-y="0"
     inkscape:window-maximized="1"
     inkscape:current-layer="svg4" />
  <path
     d="m 9.32,6.75 c 0.22,0 0.41,0.16 0.45,0.37 V 7.2 8.83 l 0.67,0.67 c 1.15,0.11 2.06,1.07 2.06,2.25 0,1.25 -1.02,2.27 -2.27,2.27 -1.25,0 -2.28,-1.02 -2.28,-2.27 0,-0.87 0.5,-1.63 1.22,-2.01 L 9.32,9.67 8.96,9.3 6.71,10.58 c 0.21,0.34 0.34,0.74 0.34,1.17 0,1.25 -1.03,2.27 -2.28,2.27 C 3.52,14.02 2.5,13 2.5,11.75 2.5,10.5 3.52,9.48 4.77,9.48 4.9,9.48 5.02,9.49 5.14,9.51 L 5.31,9.55 4.92,8.57 H 4.71 C 4.13,8.58 4.09,7.76 4.6,7.67 L 4.71,7.66 h 1.84 c 0.58,-0.01 0.61,0.81 0.1,0.9 L 6.55,8.57 H 5.9 L 6.37,9.73 8.86,8.31 V 7.66 H 8.41 C 7.83,7.67 7.8,6.85 8.31,6.76 l 0.1,-0.01 z m -4.55,3.64 c -0.76,0 -1.36,0.6 -1.36,1.36 0,0.76 0.6,1.36 1.36,1.36 0.76,0 1.37,-0.6 1.37,-1.36 0,-0.76 -0.61,-1.36 -1.37,-1.36 z m 5.46,0 c -0.76,0 -1.37,0.6 -1.37,1.36 0,0.76 0.61,1.36 1.37,1.36 0.76,0 1.36,-0.6 1.36,-1.36 0,-0.76 -0.6,-1.36 -1.36,-1.36 z"
     id="path2"
     sodipodi:nodetypes="sccccsssccccssssccccccccccccccccsssssssssss"
     style="fill:#008000" />
  <text
     xml:space="preserve"
     style="font-style:normal;font-variant:normal;font-weight:normal;font-stretch:normal;font-size:8px;line-height:0.65;font-family:'DejaVu Sans';-inkscape-font-specification:'DejaVu Sans';letter-spacing:0.05px;word-spacing:0px;fill:#008000"
     x="1.7929833"
     y="7.9424262"
     id="text6498"><tspan
       sodipodi:role="line"
       id="tspan6496"
       x="1.7929833"
       y="7.9424262">P</tspan></text>
</svg>
