<?xml version="1.0" encoding="UTF-8" standalone="no"?>
<svg
   viewBox="0 0 15 15"
   version="1.1"
   id="svg4"
   sodipodi:docname="bicycle_shed.svg"
   inkscape:version="1.1.1 (3bf5ae0d25, 2021-09-20)"
   xmlns:inkscape="http://www.inkscape.org/namespaces/inkscape"
   xmlns:sodipodi="http://sodipodi.sourceforge.net/DTD/sodipodi-0.dtd"
   xmlns="http://www.w3.org/2000/svg"
   xmlns:svg="http://www.w3.org/2000/svg">
  <defs
     id="defs8" />
  <sodipodi:namedview
     id="namedview6"
     pagecolor="#ffffff"
     bordercolor="#666666"
     borderopacity="1.0"
     inkscape:pageshadow="2"
     inkscape:pageopacity="0.0"
     inkscape:pagecheckerboard="0"
     showgrid="false"
     inkscape:zoom="53.866667"
     inkscape:cx="7.5092821"
     inkscape:cy="7.5"
     inkscape:window-width="2560"
     inkscape:window-height="1371"
     inkscape:window-x="0"
     inkscape:window-y="0"
     inkscape:window-maximized="1"
     inkscape:current-layer="layer3" />
  <g
     inkscape:groupmode="layer"
     id="layer3"
     inkscape:label="house"
     style="display:inline">
    <path
       id="path2"
       style="fill:#008000;stroke-width:0.863415"
       d="M 7.6269531,1.2597656 1.3671875,4.8320312 V 13.761719 H 13.888672 V 4.8320312 Z m 0.6894531,4.3378906 h 0.7578126 c 0.1831277,0 0.341704,0.1318862 0.375,0.3066407 v 0.068359 1.3554688 l 0.5585932,0.5585938 c 0.957258,0.091538 1.712891,0.8891233 1.712891,1.8710937 0,1.0402048 -0.848174,1.8886718 -1.8886718,1.8886718 -1.0404987,0 -1.8984375,-0.848467 -1.8984374,-1.8886718 0,-0.7239938 0.4162978,-1.3556503 1.015625,-1.671875 l 0.125,-0.058594 L 8.7753906,7.71875 6.9023438,8.7851562 c 0.1748038,0.2829423 0.2832031,0.6148223 0.2832031,0.9726563 0,1.0402045 -0.8579391,1.8886715 -1.8984375,1.8886715 -1.0404983,0 -1.8886719,-0.848467 -1.8886719,-1.8886715 0,-1.0402231 0.8481736,-1.8886719 1.8886719,-1.8886719 0.1082118,0 0.2087059,0.00875 0.3085937,0.025391 L 5.7363281,7.9277344 5.4121094,7.1113281 H 5.2363281 c -0.4827913,0.00832 -0.514367,-0.673152 -0.089844,-0.7480469 l 0.089844,-0.00781 h 1.5332031 c 0.4827913,-0.00832 0.5065544,0.673152 0.082031,0.7480468 l -0.082031,0.00781 H 6.2285156 L 6.6191406,8.078125 8.6914062,6.8964844 V 6.3554688 h -0.375 c -0.4827912,0.00832 -0.5065544,-0.6751053 -0.082031,-0.75 z M 5.2871094,8.6269531 c -0.632623,0 -1.1328125,0.4984054 -1.1328125,1.1308594 0,0.6324445 0.5001895,1.1328125 1.1328125,1.1328125 0.632623,0 1.140625,-0.500368 1.140625,-1.1328125 0,-0.632454 -0.508002,-1.1308594 -1.140625,-1.1308594 z m 4.5449218,0 c -0.6326233,0 -1.140625,0.4984054 -1.140625,1.1308594 0,0.6324445 0.5080017,1.1328125 1.140625,1.1328125 0.6326228,0 1.1328128,-0.500368 1.1328128,-1.1328125 0,-0.632454 -0.50019,-1.1308594 -1.1328128,-1.1308594 z" />
  </g>
</svg>
