<?xml version="1.0" encoding="UTF-8" standalone="no"?>
<svg
   viewBox="0 0 15 15"
   version="1.1"
   id="svg4"
   sodipodi:docname="bicycle_shed.svg"
   inkscape:version="1.1.1 (3bf5ae0d25, 2021-09-20)"
   xmlns:inkscape="http://www.inkscape.org/namespaces/inkscape"
   xmlns:sodipodi="http://sodipodi.sourceforge.net/DTD/sodipodi-0.dtd"
   xmlns="http://www.w3.org/2000/svg"
   xmlns:svg="http://www.w3.org/2000/svg">
  <defs
     id="defs8" />
  <sodipodi:namedview
     id="namedview6"
     pagecolor="#ffffff"
     bordercolor="#666666"
     borderopacity="1.0"
     inkscape:pageshadow="2"
     inkscape:pageopacity="0.0"
     inkscape:pagecheckerboard="0"
     showgrid="false"
     inkscape:zoom="53.866667"
     inkscape:cx="7.4907178"
     inkscape:cy="7.5"
     inkscape:window-width="2560"
     inkscape:window-height="1371"
     inkscape:window-x="0"
     inkscape:window-y="0"
     inkscape:window-maximized="1"
     inkscape:current-layer="layer3" />
  <g
     inkscape:groupmode="layer"
     id="layer3"
     inkscape:label="house"
     style="display:inline">
    <path
       d="m 7.6276453,1.2597656 6.2608407,3.5721289 v 8.9303215 c -12.5216818,0 0,0 -12.5216818,0 V 4.8318945 Z"
       id="path2"
       sodipodi:nodetypes="cccccc"
       style="stroke-width:0.863415;fill:#4d4d4d" />
  </g>
  <g
     inkscape:groupmode="layer"
     id="layer2"
     inkscape:label="bike"
     style="display:inline">
    <path
       d="m 9.0746471,5.5973555 c 0.1831277,0 0.3412832,0.1331463 0.3745792,0.3079008 v 0.066573 1.3564278 l 0.5577077,0.55755 c 0.957258,0.091538 1.714741,0.890426 1.714741,1.8723964 0,1.0402045 -0.849047,1.8890125 -1.8895447,1.8890125 -1.0404988,0 -1.8978694,-0.848808 -1.8978694,-1.8890125 0,-0.7239938 0.4161993,-1.3564523 1.0155264,-1.672677 L 9.0746471,8.0272751 8.7749836,7.7193744 6.9020865,8.7845548 c 0.1748038,0.2829422 0.2830156,0.6158147 0.2830156,0.9736487 0,1.0402045 -0.8573706,1.8890125 -1.897869,1.8890125 -1.0404983,0 -1.889545,-0.848808 -1.889545,-1.8890125 0,-1.0402231 0.8490467,-1.8890396 1.889545,-1.8890396 0.1082118,0 0.2080997,0.00832 0.3079875,0.024965 L 5.7367284,7.9274154 5.4120929,7.1118945 H 5.2372892 C 4.7544979,7.1202161 4.721202,6.4378414 5.1457253,6.3629466 l 0.091564,-0.00832 h 1.5316136 c 0.4827912,-0.00832 0.5077631,0.674053 0.08324,0.7489478 l -0.08324,0.00832 H 6.2278436 L 6.619071,8.077205 8.6917437,6.8955318 V 6.354625 H 8.3171643 C 7.8343731,6.362945 7.8094011,5.680572 8.2339243,5.6056772 l 0.08324,-0.00832 z m -3.787414,3.0290848 c -0.632623,0 -1.1320622,0.4993092 -1.1320622,1.1317632 0,0.6324445 0.4994392,1.1317435 1.1320622,1.1317435 0.632623,0 1.1403862,-0.499299 1.1403862,-1.1317435 0,-0.632454 -0.5077632,-1.1317632 -1.1403862,-1.1317632 z m 4.5448972,0 c -0.6326234,0 -1.1403866,0.4993092 -1.1403866,1.1317632 0,0.6324445 0.5077632,1.1317435 1.1403866,1.1317435 0.6326227,0 1.1320617,-0.499299 1.1320617,-1.1317435 0,-0.632454 -0.499439,-1.1317632 -1.1320617,-1.1317632 z"
       id="path634"
       style="fill:#ffffff;stroke-width:0.832281" />
  </g>
</svg>
