<?xml version="1.0" encoding="UTF-8" standalone="no"?>
<svg
   width="17"
   height="20"
   viewBox="0 0 17 20"
   version="1.1"
   id="svg6"
   sodipodi:docname="checkered-flag.svg"
   inkscape:version="1.1 (c68e22c387, 2021-05-23)"
   xmlns:inkscape="http://www.inkscape.org/namespaces/inkscape"
   xmlns:sodipodi="http://sodipodi.sourceforge.net/DTD/sodipodi-0.dtd"
   xmlns="http://www.w3.org/2000/svg"
   xmlns:svg="http://www.w3.org/2000/svg">
  <defs
     id="defs10" />
  <sodipodi:namedview
     id="namedview8"
     pagecolor="#ffffff"
     bordercolor="#666666"
     borderopacity="1.0"
     inkscape:pageshadow="2"
     inkscape:pageopacity="0.0"
     inkscape:pagecheckerboard="0"
     showgrid="false"
     fit-margin-top="0"
     fit-margin-left="0"
     fit-margin-right="0"
     fit-margin-bottom="0"
     inkscape:zoom="33.666667"
     inkscape:cx="2.8960396"
     inkscape:cy="12"
     inkscape:window-width="2560"
     inkscape:window-height="1371"
     inkscape:window-x="0"
     inkscape:window-y="0"
     inkscape:window-maximized="1"
     inkscape:current-layer="svg6" />
  <g
     id="g14"
     transform="translate(-3,-2)">
    <path
       d="M 4,2 V 20 H 3 v 2 H 7 V 20 H 6 v -5 h 13 a 1,1 0 0 0 1,-1 V 4 A 1,1 0 0 0 19,3 H 6 V 2 Z m 4,3 v 2 h 2 V 5 h 2 v 2 h 2 V 5 h 2 v 2 h 2 v 2 h -2 v 2 h 2 v 2 h -2 v -2 h -2 v 2 h -2 v -2 h -2 v 2 H 8 V 11 H 6 V 9 H 8 V 7 H 6 V 5 Z"
       id="path2" />
    <path
       d="m 8,9 h 2 v 2 H 8 Z m 4,0 h 2 v 2 H 12 Z M 10,7 h 2 v 2 h -2 z m 4,0 h 2 v 2 h -2 z"
       id="path4" />
  </g>
</svg>
