<?xml version="1.0" encoding="UTF-8" standalone="no"?>
<!-- Generator: Adobe Illustrator 19.0.0, SVG Export Plug-In . SVG Version: 6.00 Build 0)  -->

<svg
   version="1.1"
   id="Layer_1"
   x="0px"
   y="0px"
   viewBox="0 0 512 323.754"
   xml:space="preserve"
   sodipodi:docname="logo.svg"
   width="512"
   height="323.754"
   inkscape:version="1.1 (c68e22c387, 2021-05-23)"
   xmlns:inkscape="http://www.inkscape.org/namespaces/inkscape"
   xmlns:sodipodi="http://sodipodi.sourceforge.net/DTD/sodipodi-0.dtd"
   xmlns="http://www.w3.org/2000/svg"
   xmlns:svg="http://www.w3.org/2000/svg"><defs
   id="defs41" /><sodipodi:namedview
   id="namedview39"
   pagecolor="#ffffff"
   bordercolor="#666666"
   borderopacity="1.0"
   inkscape:pageshadow="2"
   inkscape:pageopacity="0.0"
   inkscape:pagecheckerboard="0"
   showgrid="false"
   fit-margin-top="0"
   fit-margin-left="0"
   fit-margin-right="0"
   fit-margin-bottom="0"
   inkscape:zoom="1.578125"
   inkscape:cx="62.415842"
   inkscape:cy="161.58416"
   inkscape:window-width="2560"
   inkscape:window-height="1371"
   inkscape:window-x="0"
   inkscape:window-y="0"
   inkscape:window-maximized="1"
   inkscape:current-layer="Layer_1" />
<g
   id="g6"
   transform="translate(0,-94.124)">
	<g
   id="g4">
		<path
   d="m 407.966,209.809 c -4.257,0 -8.454,0.263 -12.578,0.762 l -10.465,-36.07 -22.406,-80.377 h -50.086 v 33.391 h 24.73 l 9.716,34.856 H 204.273 l -4.567,-12.595 h 25.847 v -33.391 h -83.802 v 33.391 h 22.436 l 9.833,27.116 -27.568,41.966 c -12.961,-5.811 -27.319,-9.049 -42.419,-9.049 C 46.67,209.809 0,256.479 0,313.842 c 0,57.365 46.67,104.034 104.034,104.034 51.681,0 94.673,-37.884 102.686,-87.338 h 3.355 c 6.143,12.246 18.812,20.675 33.418,20.675 20.606,0 37.368,-16.765 37.368,-37.37 0,-5.34 -1.134,-10.418 -3.161,-15.017 l 83.215,-87.236 2.407,8.3 c -35.085,16.739 -59.389,52.56 -59.389,93.954 0,57.365 46.669,104.034 104.033,104.034 C 465.33,417.878 512,371.208 512,313.843 512,256.479 465.33,209.809 407.966,209.809 Z m -252.32,55.873 c 8.145,8.723 14.106,19.499 17.017,31.465 h -37.685 z m -51.612,118.803 c -38.952,0 -70.643,-31.691 -70.643,-70.644 0,-38.952 31.691,-70.642 70.643,-70.642 8.321,0 16.307,1.457 23.727,4.112 l -54.67,83.226 h 99.573 c -7.524,30.919 -35.431,53.948 -68.63,53.948 z m 106.042,-87.339 h -3.356 c -3.814,-23.541 -15.551,-44.457 -32.383,-59.916 l 13.893,-21.15 26.719,73.681 c -1.901,2.25 -3.541,4.727 -4.873,7.385 z m 33.417,20.675 c -2.194,0 -3.978,-1.785 -3.978,-3.979 0,-2.193 1.785,-3.977 3.978,-3.977 2.193,0 3.977,1.784 3.977,3.977 0,2.193 -1.785,3.979 -3.977,3.979 z m 8.45,-40.373 c -2.034,-0.472 -4.126,-0.782 -6.27,-0.907 l -29.292,-80.779 h 113.483 z m 156.023,107.037 c -38.952,0 -70.642,-31.691 -70.642,-70.643 0,-26.159 14.304,-49.026 35.49,-61.235 l 19.117,65.888 32.07,-9.304 -19.123,-65.911 c 1.025,-0.044 2.052,-0.078 3.089,-0.078 38.952,0 70.643,31.689 70.643,70.642 -0.001,38.951 -31.692,70.641 -70.644,70.641 z"
   id="path2" />
	</g>
</g>
<g
   id="g8"
   transform="translate(0,-94.124)">
</g>
<g
   id="g10"
   transform="translate(0,-94.124)">
</g>
<g
   id="g12"
   transform="translate(0,-94.124)">
</g>
<g
   id="g14"
   transform="translate(0,-94.124)">
</g>
<g
   id="g16"
   transform="translate(0,-94.124)">
</g>
<g
   id="g18"
   transform="translate(0,-94.124)">
</g>
<g
   id="g20"
   transform="translate(0,-94.124)">
</g>
<g
   id="g22"
   transform="translate(0,-94.124)">
</g>
<g
   id="g24"
   transform="translate(0,-94.124)">
</g>
<g
   id="g26"
   transform="translate(0,-94.124)">
</g>
<g
   id="g28"
   transform="translate(0,-94.124)">
</g>
<g
   id="g30"
   transform="translate(0,-94.124)">
</g>
<g
   id="g32"
   transform="translate(0,-94.124)">
</g>
<g
   id="g34"
   transform="translate(0,-94.124)">
</g>
<g
   id="g36"
   transform="translate(0,-94.124)">
</g>
</svg>
